<svg width="75" height="75" viewBox="0 0 75 75" fill="none" xmlns="http://www.w3.org/2000/svg">
<g clip-path="url(#clip0_6_76)">
<path d="M75 0H0V75H75V0Z" fill="#22252B"/>
<path d="M52.14 34.485H39.075V30.6H56.97V58.83H52.155V34.485H52.14ZM50.2199 20.94C50.2199 18.735 51.84 17.22 54.06 17.22C56.28 17.22 57.9 18.735 57.9 20.94C57.9 23.145 56.28 24.66 54.06 24.66C51.84 24.66 50.2199 23.205 50.2199 20.94Z" fill="#F73C59"/>
<path d="M15.9449 20.835H20.7599V54.81H39.5849V58.935H15.9449V20.835Z" fill="#F73C59"/>
<path d="M17.235 19.545H22.05V53.52H40.875V57.645H17.235V19.545Z" fill="white"/>
<path d="M53.295 33.315H40.23V29.43H58.125V57.66H53.31V33.315H53.295ZM51.375 19.785C51.375 17.58 52.995 16.065 55.215 16.065C57.435 16.065 59.055 17.58 59.055 19.785C59.055 21.99 57.435 23.505 55.215 23.505C52.995 23.505 51.375 22.05 51.375 19.785Z" fill="white"/>
</g>
<rect x="0.5" y="0.5" width="74" height="74" stroke="#F73C59"/>
<defs>
<clipPath id="clip0_6_76">
<rect width="75" height="75" fill="white"/>
</clipPath>
</defs>
</svg>
